HIERARCHY
ROOT joint_Root
{
	OFFSET 0.0 0.0 0.0
	CHANNELS 6 Xposition Yposition Zposition Zrotation Xrotation Yrotation 
	JOINT Hips
	{
		OFFSET -17.1583 93.1646 452.98
		CHANNELS 6 Xposition Yposition Zposition Zrotation Xrotation Yrotation 
		JOINT Spine
		{
			OFFSET 15.7357 0.0 0.0
			CHANNELS 6 Xposition Yposition Zposition Zrotation Xrotation Yrotation 
			JOINT Chest
			{
				OFFSET 8.98455 -0.406207 0.0
				CHANNELS 6 Xposition Yposition Zposition Zrotation Xrotation Yrotation 
				JOINT Neck
				{
					OFFSET 16.3773 0.0 0.0
					CHANNELS 6 Xposition Yposition Zposition Zrotation Xrotation Yrotation 
					JOINT Head
					{
						OFFSET 6.45672 0.0 0.0
						CHANNELS 6 Xposition Yposition Zposition Zrotation Xrotation Yrotation 
						End Site
						{
							OFFSET 0.0 0.0 0.0
						}
					}
				}
				JOINT Shoulder_L
				{
					OFFSET 12.9942 -0.242716 4.98039
					CHANNELS 6 Xposition Yposition Zposition Zrotation Xrotation Yrotation 
					JOINT UpperArm_L
					{
						OFFSET 5.34809 0.0 0.0
						CHANNELS 6 Xposition Yposition Zposition Zrotation Xrotation Yrotation 
						JOINT LowerArm_L
						{
							OFFSET 24.3286 1.87007e-05 0.0
							CHANNELS 6 Xposition Yposition Zposition Zrotation Xrotation Yrotation 
							JOINT Hand_L
							{
								OFFSET 22.2916 0.0 0.0
								CHANNELS 6 Xposition Yposition Zposition Zrotation Xrotation Yrotation 
								End Site
								{
									OFFSET 0.0 0.0 0.0
								}
							}
						}
					}
				}
				JOINT Shoulder_R
				{
					OFFSET 12.9945 -0.242716 -4.98039
					CHANNELS 6 Xposition Yposition Zposition Zrotation Xrotation Yrotation 
					JOINT UpperArm_R
					{
						OFFSET -5.34813 0.0 0.0
						CHANNELS 6 Xposition Yposition Zposition Zrotation Xrotation Yrotation 
						JOINT LowerArm_R
						{
							OFFSET -24.3289 0.000322201 0.0
							CHANNELS 6 Xposition Yposition Zposition Zrotation Xrotation Yrotation 
							JOINT Hand_R
							{
								OFFSET -22.2915 -0.000108084 0.0
								CHANNELS 6 Xposition Yposition Zposition Zrotation Xrotation Yrotation 
								End Site
								{
									OFFSET 0.0 0.0 0.0
								}
							}
						}
					}
				}
			}
		}
		JOINT UpperLeg_L
		{
			OFFSET -2.19248 -6.46944 0.0
			CHANNELS 6 Xposition Yposition Zposition Zrotation Xrotation Yrotation 
			JOINT LowerLeg_L
			{
				OFFSET 39.0811 0.0 -1.23785e-05
				CHANNELS 6 Xposition Yposition Zposition Zrotation Xrotation Yrotation 
				JOINT Foot_L
				{
					OFFSET 40.9854 0.0 -1.26872e-05
					CHANNELS 6 Xposition Yposition Zposition Zrotation Xrotation Yrotation 
					JOINT Toes_L
					{
						OFFSET 11.7543 0.0 0.0
						CHANNELS 6 Xposition Yposition Zposition Zrotation Xrotation Yrotation 
						End Site
						{
							OFFSET 0.0 0.0 0.0
						}
					}
				}
			}
		}
		JOINT UpperLeg_R
		{
			OFFSET -2.19251 6.46944 0.0
			CHANNELS 6 Xposition Yposition Zposition Zrotation Xrotation Yrotation 
			JOINT LowerLeg_R
			{
				OFFSET -39.0811 -0.00228153 -0.0401928
				CHANNELS 6 Xposition Yposition Zposition Zrotation Xrotation Yrotation 
				JOINT Foot_R
				{
					OFFSET -40.9854 0.0 0.0
					CHANNELS 6 Xposition Yposition Zposition Zrotation Xrotation Yrotation 
					JOINT Toes_R
					{
						OFFSET -11.7543 0.0 0.0
						CHANNELS 6 Xposition Yposition Zposition Zrotation Xrotation Yrotation 
						End Site
						{
							OFFSET 0.0 0.0 0.0
						}
					}
				}
			}
		}
	}
}
MOTION
Frames:	6
Frame Time:	0.0333333
0.000000 0.000000 0.000000 0.000000 0.000000 -0.000000 -0.951935 92.343200 -2.808020 85.457100 -0.349659 7.317140 15.735700 0.000005 -0.000001 82.328900 85.656100 -80.104100 8.984550 -0.406207 -0.000000 0.873246 -1.292990 4.456080 16.377300 -0.000001 -0.000001 8.506560 1.623340 -1.014360 6.456720 -0.000001 -0.000000 -8.101800 0.562671 3.497740 12.994200 -0.242716 4.980390 -93.240600 9.487580 -71.042700 5.348090 -0.000007 -0.000001 -71.214100 23.992000 -0.866864 24.328600 0.000019 0.000005 9.439150 22.141300 -23.802500 22.291600 -0.000001 0.000005 -8.329000 4.986410 7.604480 12.994500 -0.242716 -4.980390 87.447000 6.956360 -69.788800 -5.348130 -0.000001 -0.000004 -68.557300 30.975000 -5.447480 -24.328900 0.000322 -0.000009 1.285020 4.933920 -14.629200 -22.291500 -0.000108 -0.000004 -2.173620 5.298000 0.128374 -2.192480 -6.469440 -0.000000 -176.499000 3.197860 -1.166020 39.081100 -0.000007 -0.000012 0.337817 -0.680633 26.397300 40.985400 -0.000006 -0.000013 2.200070 3.237560 -73.432200 11.754300 -0.000000 0.000003 -0.000136 0.169889 -9.686070 -2.192510 6.469440 -0.000001 -173.097000 6.922450 -175.306000 -39.081100 -0.002282 -0.040193 0.104425 -0.334847 16.800400 -40.985400 0.000008 0.000006 2.793250 1.566760 -70.202300 -11.754300 -0.000006 -0.000006 -0.011042 0.278930 -5.239010
0.000000 0.000000 0.000000 0.000000 0.000000 -0.000000 -1.016210 92.355300 -2.875900 85.475600 -0.373238 7.252770 15.735700 0.000005 -0.000001 82.495900 85.644500 -80.286800 8.984550 -0.406207 -0.000000 0.898964 -1.269490 4.424830 16.377300 -0.000001 -0.000001 8.219590 1.482320 -1.081490 6.456720 -0.000001 -0.000000 -8.164930 0.442407 3.153090 12.994200 -0.242716 4.980390 -93.339400 9.751980 -70.992100 5.348090 -0.000007 -0.000001 -69.721400 23.461200 -1.616010 24.328600 0.000019 0.000005 10.757400 22.841400 -26.078100 22.291600 -0.000001 0.000005 -11.585200 4.975470 7.837750 12.994500 -0.242716 -4.980390 87.472000 6.891950 -69.799700 -5.348130 -0.000001 -0.000004 -68.631100 30.884200 -5.424440 -24.328900 0.000322 -0.000009 1.294620 4.967080 -14.639800 -22.291500 -0.000108 -0.000004 -2.164050 5.297340 0.146764 -2.192480 -6.469440 -0.000000 -176.465000 3.189710 -1.262940 39.081100 -0.000007 -0.000012 0.337188 -0.680065 26.373800 40.985400 -0.000006 -0.000013 2.145930 3.247670 -73.472400 11.754300 -0.000000 0.000003 -0.000454 0.174952 -9.480410 -2.192510 6.469440 -0.000001 -173.071000 6.955150 -175.405000 -39.081100 -0.002282 -0.040193 0.103619 -0.332806 16.770300 -40.985400 0.000008 0.000006 2.799770 1.626510 -70.166800 -11.754300 -0.000006 -0.000006 -0.011298 0.280765 -5.163890
0.000000 0.000000 0.000000 0.000000 0.000000 -0.000000 -1.118600 92.367200 -2.983220 85.470000 -0.309425 7.122400 15.735700 0.000005 -0.000001 82.570100 85.642700 -80.377600 8.984550 -0.406207 -0.000000 0.903597 -1.257700 4.391430 16.377300 -0.000001 -0.000001 7.847450 1.263890 -1.173270 6.456720 -0.000001 -0.000000 -8.295590 0.265783 2.482580 12.994200 -0.242716 4.980390 -93.392100 9.890330 -70.961200 5.348090 -0.000007 -0.000001 -68.131900 21.726200 -2.326010 24.328600 0.000019 0.000005 13.074900 23.392800 -30.324400 22.291600 -0.000001 0.000005 -14.499400 4.965560 8.044710 12.994500 -0.242716 -4.980390 87.482400 6.867270 -69.810300 -5.348130 -0.000001 -0.000004 -68.658200 30.763700 -5.431260 -24.328900 0.000322 -0.000009 1.306240 4.998130 -14.677800 -22.291500 -0.000108 -0.000004 -2.242080 5.299480 0.087050 -2.192480 -6.469440 -0.000000 -176.361000 3.191250 -1.469720 39.081100 -0.000007 -0.000012 0.332464 -0.670889 26.361800 40.985400 -0.000006 -0.000013 2.079060 3.334410 -73.377100 11.754300 -0.000000 0.000003 -0.000220 0.171242 -9.631150 -2.192510 6.469440 -0.000001 -172.984000 7.042000 -175.573000 -39.081100 -0.002282 -0.040193 0.103156 -0.333181 16.679600 -40.985400 0.000008 0.000006 2.917170 1.646270 -70.066300 -11.754300 -0.000006 -0.000006 -0.011125 0.279527 -5.214570
0.000000 0.000000 0.000000 0.000000 0.000000 -0.000000 -1.225930 92.404000 -3.083070 85.523100 -0.221135 6.838310 15.735700 0.000005 -0.000001 82.517300 85.696000 -80.342800 8.984550 -0.406207 -0.000000 0.796440 -1.252760 4.354590 16.377300 -0.000001 -0.000001 7.414900 1.052840 -1.508600 6.456720 -0.000001 -0.000000 -8.508020 -0.148591 1.399100 12.994200 -0.242716 4.980390 -93.415400 9.867190 -70.798700 5.348090 -0.000007 -0.000001 -66.723200 19.198500 -2.737150 24.328600 0.000019 0.000005 16.069500 22.821100 -36.599900 22.291600 -0.000001 0.000005 -15.411300 4.926550 8.843230 12.994500 -0.242716 -4.980390 87.447900 6.936800 -69.743500 -5.348130 -0.000001 -0.000004 -68.456500 30.858700 -5.477230 -24.328900 0.000322 -0.000009 1.319570 4.993900 -14.833000 -22.291500 -0.000108 -0.000004 -2.142460 5.295970 0.185047 -2.192480 -6.469440 -0.000000 -176.319000 3.237930 -1.767390 39.081100 -0.000007 -0.000012 0.324754 -0.660504 26.182900 40.985400 -0.000006 -0.000013 2.001970 3.401080 -73.223300 11.754300 -0.000000 0.000003 -0.000212 0.171126 -9.635830 -2.192510 6.469440 -0.000001 -172.981000 7.198710 -175.853000 -39.081100 -0.002282 -0.040193 0.096357 -0.313909 16.507600 -40.985400 0.000008 0.000006 2.756070 1.778910 -69.839500 -11.754300 -0.000006 -0.000006 -0.010618 0.275869 -5.364270
0.000000 0.000000 0.000000 0.000000 0.000000 -0.000000 -1.355870 92.434200 -3.191370 85.531800 -0.214795 6.509690 15.735700 0.000005 -0.000001 82.694300 85.778000 -80.508300 8.984550 -0.406207 -0.000000 0.636549 -1.209340 4.375510 16.377300 -0.000001 -0.000001 6.990380 0.705837 -2.013370 6.456720 -0.000001 -0.000000 -8.874680 -0.580965 -0.380098 12.994200 -0.242716 4.980390 -93.402800 9.755210 -70.662700 5.348090 -0.000007 -0.000001 -65.497200 15.938800 -2.808900 24.328600 0.000019 0.000005 20.153600 21.505100 -45.029400 22.291600 -0.000001 0.000005 -14.482000 4.869820 9.973100 12.994500 -0.242716 -4.980390 87.414300 6.996630 -69.658200 -5.348130 -0.000001 -0.000004 -68.328600 30.668100 -5.527870 -24.328900 0.000322 -0.000009 1.323760 4.993680 -14.878600 -22.291500 -0.000108 -0.000004 -1.947830 5.297560 0.140725 -2.192480 -6.469440 -0.000000 -176.227000 3.287170 -2.108060 39.081100 -0.000007 -0.000012 0.325142 -0.664692 26.066800 40.985400 -0.000006 -0.000013 1.883960 3.359770 -73.167800 11.754300 -0.000000 0.000003 -0.000201 0.170949 -9.643020 -2.192510 6.469440 -0.000001 -172.874000 7.200220 -176.189000 -39.081100 -0.002282 -0.040193 0.092276 -0.303239 16.347900 -40.985400 0.000008 0.000006 2.700010 1.847350 -69.708000 -11.754300 -0.000006 -0.000006 -0.011075 0.279167 -5.229290
0.000000 0.000000 0.000000 0.000000 0.000000 -0.000000 -1.478170 92.465300 -3.280170 85.544200 -0.297921 6.258150 15.735700 0.000005 -0.000001 83.215600 85.851000 -81.034000 8.984550 -0.406207 -0.000000 0.499104 -1.118220 4.364950 16.377300 -0.000001 -0.000001 6.543930 0.313201 -2.767060 6.456720 -0.000001 -0.000000 -9.187320 -1.156820 -2.445650 12.994200 -0.242716 4.980390 -93.368100 9.566650 -70.500200 5.348090 -0.000007 -0.000001 -64.685300 11.637000 -2.749900 24.328600 0.000019 0.000005 26.059700 19.856000 -55.212100 22.291600 -0.000001 0.000005 -12.815400 4.818930 10.953900 12.994500 -0.242716 -4.980390 87.387800 7.077970 -69.682900 -5.348130 -0.000001 -0.000004 -68.255400 30.469100 -5.543730 -24.328900 0.000322 -0.000009 1.292630 4.891260 -14.834400 -22.291500 -0.000108 -0.000004 -1.846450 5.298550 0.113029 -2.192480 -6.469440 -0.000000 -176.139000 3.309730 -2.343280 39.081100 -0.000007 -0.000012 0.316273 -0.650713 25.922300 40.985400 -0.000006 -0.000013 1.754110 3.251310 -73.070100 11.754300 -0.000000 0.000003 -0.000160 0.170275 -9.670430 -2.192510 6.469440 -0.000001 -172.808000 7.189700 -176.438000 -39.081100 -0.002282 -0.040193 0.085927 -0.284181 16.206900 -40.985400 0.000008 0.000006 2.490220 2.006930 -69.510600 -11.754300 -0.000006 -0.000006 -0.010922 0.278066 -5.274360
